<svg width="40" height="28" viewBox="0 0 40 28" fill="none" xmlns="http://www.w3.org/2000/svg">
<g clip-path="url(#clip0_1_1870)">
<path fill-rule="evenodd" clip-rule="evenodd" d="M20.2856 19.6084C18.9238 20.7836 17.1574 21.4931 15.2271 21.4931C10.92 21.4931 7.42847 17.961 7.42847 13.604C7.42847 9.24692 10.92 5.71484 15.2271 5.71484C17.1574 5.71484 18.9238 6.42427 20.2856 7.59945C21.6474 6.42427 23.4138 5.71484 25.3441 5.71484C29.6512 5.71484 33.1428 9.24692 33.1428 13.604C33.1428 17.961 29.6512 21.4931 25.3441 21.4931C23.4138 21.4931 21.6474 20.7836 20.2856 19.6084Z" fill="#ED0006"/>
<path fill-rule="evenodd" clip-rule="evenodd" d="M20.2856 19.6084C21.9624 18.1615 23.0256 16.0083 23.0256 13.604C23.0256 11.1996 21.9624 9.04647 20.2856 7.59945C21.6475 6.42427 23.4139 5.71484 25.3442 5.71484C29.6512 5.71484 33.1428 9.24692 33.1428 13.604C33.1428 17.961 29.6512 21.4931 25.3442 21.4931C23.4139 21.4931 21.6475 20.7836 20.2856 19.6084Z" fill="#F9A000"/>
<path fill-rule="evenodd" clip-rule="evenodd" d="M20.2857 7.59961C21.9625 9.04663 23.0258 11.1998 23.0258 13.6041C23.0258 16.0085 21.9625 18.1616 20.2857 19.6086C18.609 18.1616 17.5457 16.0085 17.5457 13.6041C17.5457 11.1998 18.609 9.04663 20.2857 7.59961Z" fill="#FBBC04"/>
</g>
<defs>
<clipPath id="clip0_1_1870">
<rect width="40" height="27.42" fill="white" transform="translate(0 0.00488281)"/>
</clipPath>
</defs>
</svg>
