<svg width="46" height="34" viewBox="0 0 46 34" fill="none" xmlns="http://www.w3.org/2000/svg">
<mask id="path-1-inside-1_1_1860" fill="white">
<path d="M1 4.00489C1 1.79575 2.79086 0.00488281 5 0.00488281H41C43.2091 0.00488281 45 1.79574 45 4.00488V27.4249C45 29.634 43.2091 31.4249 41 31.4249H5C2.79086 31.4249 1 29.634 1 27.4249V4.00489Z"/>
</mask>
<path d="M5 0.00488281V2.00488H41V0.00488281V-1.99512H5V0.00488281ZM45 4.00488H43V27.4249H45H47V4.00488H45ZM41 31.4249V29.4249H5V31.4249V33.4249H41V31.4249ZM1 27.4249H3V4.00489H1H-1V27.4249H1ZM5 31.4249V29.4249C3.89543 29.4249 3 28.5295 3 27.4249H1H-1C-1 30.7386 1.68629 33.4249 5 33.4249V31.4249ZM45 27.4249H43C43 28.5295 42.1046 29.4249 41 29.4249V31.4249V33.4249C44.3137 33.4249 47 30.7386 47 27.4249H45ZM41 0.00488281V2.00488C42.1046 2.00488 43 2.90031 43 4.00488H45H47C47 0.691175 44.3137 -1.99512 41 -1.99512V0.00488281ZM5 0.00488281V-1.99512C1.68629 -1.99512 -1 0.691179 -1 4.00489H1H3C3 2.90031 3.89543 2.00488 5 2.00488V0.00488281Z" fill="#D9D9D9" mask="url(#path-1-inside-1_1_1860)"/>
<g clip-path="url(#clip0_1_1860)">
<g clip-path="url(#clip1_1_1860)">
<path fill-rule="evenodd" clip-rule="evenodd" d="M15.1432 20.5814H12.7199L10.9028 13.649C10.8165 13.3301 10.6334 13.0482 10.364 12.9153C9.69175 12.5814 8.95096 12.3156 8.14282 12.1816V11.9147H12.0464C12.5852 11.9147 12.9893 12.3156 13.0566 12.7813L13.9994 17.7818L16.4215 11.9147H18.7773L15.1432 20.5814ZM20.1243 20.5814H17.8357L19.7202 11.9147H22.0088L20.1243 20.5814ZM24.9696 14.3156C25.0369 13.8489 25.441 13.5819 25.9123 13.5819C26.6531 13.515 27.4601 13.649 28.1336 13.9817L28.5376 12.1158C27.8642 11.8489 27.1234 11.7148 26.4512 11.7148C24.2299 11.7148 22.6137 12.9153 22.6137 14.5814C22.6137 15.8489 23.7585 16.5144 24.5666 16.9153C25.441 17.3151 25.7777 17.582 25.7104 17.9817C25.7104 18.5814 25.0369 18.8483 24.3647 18.8483C23.5564 18.8483 22.7483 18.6484 22.0088 18.3145L21.6047 20.1817C22.4128 20.5144 23.2871 20.6484 24.0953 20.6484C26.5858 20.7143 28.1336 19.515 28.1336 17.7148C28.1336 15.448 24.9696 15.3151 24.9696 14.3156ZM36.1428 20.5814L34.3257 11.9147H32.3739C31.9698 11.9147 31.5658 12.1816 31.4311 12.5814L28.0661 20.5814H30.422L30.8923 19.3151H33.7869L34.0563 20.5814H36.1428ZM32.7106 14.2487L33.3828 17.515H31.4984L32.7106 14.2487Z" fill="#172B85"/>
</g>
</g>
<defs>
<clipPath id="clip0_1_1860">
<rect width="40" height="27.42" fill="white" transform="translate(3 2.00488)"/>
</clipPath>
<clipPath id="clip1_1_1860">
<rect width="40" height="27.42" fill="white" transform="translate(3 2.00488)"/>
</clipPath>
</defs>
</svg>
