<?xml version="1.0" encoding="iso-8859-1"?>
<!-- Uploaded to: SVG Repo, www.svgrepo.com, Generator: SVG Repo Mixer Tools -->
<svg fill="#000000" height="800px" width="800px" version="1.1" id="Layer_1" xmlns="http://www.w3.org/2000/svg" xmlns:xlink="http://www.w3.org/1999/xlink" 
	 viewBox="0 0 492.308 492.308" xml:space="preserve">
<g>
	<g>
		<polygon points="325.039,0 325.039,19.692 458.691,19.692 296.885,181.49 310.808,195.414 472.615,33.614 472.615,167.26 
			492.308,167.26 492.308,0 		"/>
	</g>
</g>
<g>
	<g>
		<polygon points="33.617,19.692 167.269,19.692 167.269,0 0,0 0,167.26 19.692,167.26 19.692,33.614 181.5,195.414 195.423,181.49 
					"/>
	</g>
</g>
<g>
	<g>
		<polygon points="472.615,325.039 472.615,458.692 310.808,296.885 296.885,310.808 458.692,472.615 325.039,472.615 
			325.039,492.308 492.308,492.308 492.308,325.039 		"/>
	</g>
</g>
<g>
	<g>
		<polygon points="195.423,310.808 181.5,296.885 19.692,458.692 19.692,325.039 0,325.039 0,492.308 167.269,492.308 
			167.269,472.615 33.615,472.615 		"/>
	</g>
</g>
</svg>