<svg width="49" height="56" viewBox="0 0 49 56" fill="none" xmlns="http://www.w3.org/2000/svg">
<g clip-path="url(#clip0_1_1652)">
<g clip-path="url(#clip1_1_1652)">
<g clip-path="url(#clip2_1_1652)">
<path d="M-2.68491 41.7592H-4.03491V43.1092H-2.68491V41.7592ZM51.3151 41.7592V43.1092H52.6651V41.7592H51.3151ZM-1.33491 41.7592V38.0723H-4.03491V41.7592H-1.33491ZM8.78059 27.9568H39.8495V25.2568H8.78059V27.9568ZM49.9651 38.0723V41.7592H52.6651V38.0723H49.9651ZM51.3151 40.4092H-2.68491V43.1092H51.3151V40.4092ZM39.8495 27.9568C45.4362 27.9568 49.9651 32.4857 49.9651 38.0723H52.6651C52.6651 30.9945 46.9274 25.2568 39.8495 25.2568V27.9568ZM-1.33491 38.0723C-1.33491 32.4857 3.19399 27.9568 8.78059 27.9568V25.2568C1.70279 25.2568 -4.03491 30.9945 -4.03491 38.0723H-1.33491Z" fill="white"/>
<path d="M18.402 18.7225H30.2273V16.0225H18.402V18.7225ZM34.6101 23.1053V25.043H37.3101V23.1053H34.6101ZM14.0192 25.043V23.1053H11.3192V25.043H14.0192ZM30.2273 18.7225C32.6479 18.7225 34.6101 20.6848 34.6101 23.1053H37.3101C37.3101 19.1936 34.139 16.0225 30.2273 16.0225V18.7225ZM18.402 16.0225C14.4903 16.0225 11.3192 19.1936 11.3192 23.1053H14.0192C14.0192 20.6848 15.9815 18.7225 18.402 18.7225V16.0225Z" fill="white"/>
<path d="M4.10112 28.1819V13.4256H1.40112V28.1819H4.10112ZM8.48392 9.04277H40.1459V6.34277H8.48392V9.04277ZM44.5287 13.4256V27.5422H47.2287V13.4256H44.5287ZM40.1459 9.04277C42.5665 9.04277 44.5287 11.0051 44.5287 13.4256H47.2287C47.2287 9.51387 44.0576 6.34277 40.1459 6.34277V9.04277ZM4.10112 13.4256C4.10112 11.0051 6.06342 9.04277 8.48392 9.04277V6.34277C4.57222 6.34277 1.40112 9.51387 1.40112 13.4256H4.10112Z" fill="white"/>
<path d="M3.84424 43.1094V47.0851" stroke="white" stroke-width="2.7" stroke-linecap="round"/>
<path d="M44.845 43.1094V47.0851" stroke="white" stroke-width="2.7" stroke-linecap="round"/>
</g>
</g>
</g>
<defs>
<clipPath id="clip0_1_1652">
<rect width="47.72" height="55" fill="white" transform="translate(0.455078 0.564941)"/>
</clipPath>
<clipPath id="clip1_1_1652">
<rect width="55" height="55" fill="white" transform="translate(-3.18494 0.564941)"/>
</clipPath>
<clipPath id="clip2_1_1652">
<rect width="55" height="55" fill="white" transform="translate(-3.18494 0.564941)"/>
</clipPath>
</defs>
</svg>
